All credit to the original upper.                                                                     

Just became available on direct download sites.                                                   

Enjoy and please share.                                                                                

                                                             

******************************************************************					

													

													

			                      

Camelot.S01E02.The.Sword.and.the.Crown.720p.WEB.DL.DD5.1.H264.KiNGS.mkv
Format                           : Matroska
File size                        : 1.49 GiB
Duration                         : 49mn 10s
Overall bit rate                 : 4 330 Kbps
Movie name                       : 

Camelot.S01E02.The.Sword.and.the.Crown.720p.WEB.DL.DD5.1.H264.KiNGS.mkv 10940
Encoded date                     : UTC 2011-06-18 09:28:19
Writing application              : mkvmerge v2.9.8 ('C'est le bon') built on Aug 13 2009 12:49:06
Writing library                  : libebml v0.7.7 + libmatroska v0.8.1

Video
ID                               : 1
Format                           : AVC
Format/Info                      : Advanced Video Codec
Format profile                   : High@L3.1
Format settings, CABAC           : No
Format settings, ReFrames        : 2 frames
Muxing mode                      : Container profile=Unknown@3.1
Codec ID                         : V_MPEG4/ISO/AVC
Duration                         : 49mn 7s
Bit rate                         : 3 859 Kbps
Width                            : 1 280 pixels
Height                           : 718 pixels
Display aspect ratio             : 16:9
Frame rate                       : 23.976 fps
Resolution                       : 8 bits
Colorimetry                      : 4:2:0
Scan type                        : Progressive
Bits/(Pixel*Frame)               : 0.175
Stream size                      : 1.32 GiB (89%)
Language                         : English
Color primaries                  : BT.709-5, BT.1361, IEC 61966-2-4, SMPTE RP177
Transfer characteristics         : BT.709-5, BT.1361
Matrix coefficients              : BT.709-5, BT.1361, IEC 61966-2-4 709, SMPTE RP177

Audio
ID                               : 2
Format                           : AC-3
Format/Info                      : Audio Coding 3
Codec ID                         : A_AC3
Duration                         : 49mn 10s
Bit rate mode                    : Constant
Bit rate                         : 384 Kbps
Channel(s)                       : 6 channels
Channel positions                : Front: L C R, Surround: L R, LFE
Sampling rate                    : 48.0 KHz
Stream size                      : 135 MiB (9%)
Language                         : English

 